<mxfile host="app.diagrams.net" modified="2022-08-06T02:13:01.106Z" agent="5.0 (Windows NT 10.0; Win64; x64) AppleWebKit/537.36 (KHTML, like Gecko) Chrome/104.0.0.0 Safari/537.36" etag="lPVyTSvCkQbRT-5QjnBO" version="20.2.3" type="github">
  <diagram id="14cBJHpAqnfny-nbTEYT" name="Página-1">
    <mxGraphModel dx="1108" dy="474" grid="1" gridSize="10" guides="1" tooltips="1" connect="1" arrows="1" fold="1" page="1" pageScale="1" pageWidth="827" pageHeight="1169" math="0" shadow="0">
      <root>
        <mxCell id="0" />
        <mxCell id="1" parent="0" />
        <mxCell id="C39TWcMq3VKKaSgKjo65-4" value="" style="edgeStyle=orthogonalEdgeStyle;rounded=0;orthogonalLoop=1;jettySize=auto;html=1;" edge="1" parent="1" source="C39TWcMq3VKKaSgKjo65-1" target="C39TWcMq3VKKaSgKjo65-2">
          <mxGeometry relative="1" as="geometry" />
        </mxCell>
        <mxCell id="C39TWcMq3VKKaSgKjo65-1" value="Início" style="ellipse;whiteSpace=wrap;html=1;" vertex="1" parent="1">
          <mxGeometry x="140" y="30" width="120" height="80" as="geometry" />
        </mxCell>
        <mxCell id="C39TWcMq3VKKaSgKjo65-7" style="edgeStyle=orthogonalEdgeStyle;rounded=0;orthogonalLoop=1;jettySize=auto;html=1;exitX=0.5;exitY=1;exitDx=0;exitDy=0;entryX=0.5;entryY=0;entryDx=0;entryDy=0;" edge="1" parent="1" source="C39TWcMq3VKKaSgKjo65-2" target="C39TWcMq3VKKaSgKjo65-5">
          <mxGeometry relative="1" as="geometry" />
        </mxCell>
        <mxCell id="C39TWcMq3VKKaSgKjo65-2" value="Digite a&lt;br&gt;data do evento:" style="shape=step;perimeter=stepPerimeter;whiteSpace=wrap;html=1;fixedSize=1;" vertex="1" parent="1">
          <mxGeometry x="140" y="140" width="120" height="80" as="geometry" />
        </mxCell>
        <mxCell id="C39TWcMq3VKKaSgKjo65-9" style="edgeStyle=orthogonalEdgeStyle;rounded=0;orthogonalLoop=1;jettySize=auto;html=1;exitX=0.5;exitY=1;exitDx=0;exitDy=0;entryX=0.5;entryY=0;entryDx=0;entryDy=0;" edge="1" parent="1" source="C39TWcMq3VKKaSgKjo65-5" target="C39TWcMq3VKKaSgKjo65-8">
          <mxGeometry relative="1" as="geometry" />
        </mxCell>
        <mxCell id="C39TWcMq3VKKaSgKjo65-5" value="data_evento" style="shape=parallelogram;perimeter=parallelogramPerimeter;whiteSpace=wrap;html=1;fixedSize=1;" vertex="1" parent="1">
          <mxGeometry x="140" y="270" width="120" height="60" as="geometry" />
        </mxCell>
        <mxCell id="C39TWcMq3VKKaSgKjo65-14" value="" style="edgeStyle=orthogonalEdgeStyle;rounded=0;orthogonalLoop=1;jettySize=auto;html=1;" edge="1" parent="1" source="C39TWcMq3VKKaSgKjo65-8" target="C39TWcMq3VKKaSgKjo65-10">
          <mxGeometry relative="1" as="geometry">
            <Array as="points">
              <mxPoint x="310" y="400" />
              <mxPoint x="310" y="400" />
            </Array>
          </mxGeometry>
        </mxCell>
        <mxCell id="C39TWcMq3VKKaSgKjo65-21" style="edgeStyle=orthogonalEdgeStyle;rounded=0;orthogonalLoop=1;jettySize=auto;html=1;exitX=0.5;exitY=1;exitDx=0;exitDy=0;entryX=0.5;entryY=0;entryDx=0;entryDy=0;" edge="1" parent="1" source="C39TWcMq3VKKaSgKjo65-8" target="C39TWcMq3VKKaSgKjo65-11">
          <mxGeometry relative="1" as="geometry" />
        </mxCell>
        <mxCell id="C39TWcMq3VKKaSgKjo65-8" value="data_evento &amp;gt; Dia de hoje?" style="rounded=0;whiteSpace=wrap;html=1;" vertex="1" parent="1">
          <mxGeometry x="140" y="370" width="120" height="60" as="geometry" />
        </mxCell>
        <mxCell id="C39TWcMq3VKKaSgKjo65-45" style="edgeStyle=orthogonalEdgeStyle;rounded=0;orthogonalLoop=1;jettySize=auto;html=1;" edge="1" parent="1" source="C39TWcMq3VKKaSgKjo65-10" target="C39TWcMq3VKKaSgKjo65-41">
          <mxGeometry relative="1" as="geometry" />
        </mxCell>
        <mxCell id="C39TWcMq3VKKaSgKjo65-10" value="Data&lt;br&gt;indisponível!" style="shape=step;perimeter=stepPerimeter;whiteSpace=wrap;html=1;fixedSize=1;" vertex="1" parent="1">
          <mxGeometry x="320" y="360" width="120" height="80" as="geometry" />
        </mxCell>
        <mxCell id="C39TWcMq3VKKaSgKjo65-15" style="edgeStyle=orthogonalEdgeStyle;rounded=0;orthogonalLoop=1;jettySize=auto;html=1;exitX=1;exitY=0.5;exitDx=0;exitDy=0;" edge="1" parent="1" source="C39TWcMq3VKKaSgKjo65-11" target="C39TWcMq3VKKaSgKjo65-12">
          <mxGeometry relative="1" as="geometry" />
        </mxCell>
        <mxCell id="C39TWcMq3VKKaSgKjo65-24" value="" style="edgeStyle=orthogonalEdgeStyle;rounded=0;orthogonalLoop=1;jettySize=auto;html=1;" edge="1" parent="1" source="C39TWcMq3VKKaSgKjo65-11" target="C39TWcMq3VKKaSgKjo65-23">
          <mxGeometry relative="1" as="geometry" />
        </mxCell>
        <mxCell id="C39TWcMq3VKKaSgKjo65-11" value="Qtde. participantes &amp;lt; 100?" style="rounded=0;whiteSpace=wrap;html=1;" vertex="1" parent="1">
          <mxGeometry x="140" y="470" width="120" height="60" as="geometry" />
        </mxCell>
        <mxCell id="C39TWcMq3VKKaSgKjo65-44" style="edgeStyle=orthogonalEdgeStyle;rounded=0;orthogonalLoop=1;jettySize=auto;html=1;exitX=1;exitY=0.5;exitDx=0;exitDy=0;entryX=0.25;entryY=0.125;entryDx=0;entryDy=0;entryPerimeter=0;" edge="1" parent="1" source="C39TWcMq3VKKaSgKjo65-12" target="C39TWcMq3VKKaSgKjo65-41">
          <mxGeometry relative="1" as="geometry" />
        </mxCell>
        <mxCell id="C39TWcMq3VKKaSgKjo65-12" value="Quantidade&lt;br&gt;máxima de&lt;br&gt;participantes&lt;br&gt;excedida!" style="shape=step;perimeter=stepPerimeter;whiteSpace=wrap;html=1;fixedSize=1;" vertex="1" parent="1">
          <mxGeometry x="320" y="460" width="120" height="80" as="geometry" />
        </mxCell>
        <mxCell id="C39TWcMq3VKKaSgKjo65-16" value="Não" style="text;html=1;strokeColor=none;fillColor=none;align=center;verticalAlign=middle;whiteSpace=wrap;rounded=0;" vertex="1" parent="1">
          <mxGeometry x="260" y="370" width="60" height="30" as="geometry" />
        </mxCell>
        <mxCell id="C39TWcMq3VKKaSgKjo65-17" value="Não" style="text;html=1;strokeColor=none;fillColor=none;align=center;verticalAlign=middle;whiteSpace=wrap;rounded=0;" vertex="1" parent="1">
          <mxGeometry x="260" y="470" width="60" height="30" as="geometry" />
        </mxCell>
        <mxCell id="C39TWcMq3VKKaSgKjo65-18" value="Sim" style="text;html=1;strokeColor=none;fillColor=none;align=center;verticalAlign=middle;whiteSpace=wrap;rounded=0;rotation=-90;" vertex="1" parent="1">
          <mxGeometry x="160" y="430" width="60" height="30" as="geometry" />
        </mxCell>
        <mxCell id="C39TWcMq3VKKaSgKjo65-27" value="" style="edgeStyle=orthogonalEdgeStyle;rounded=0;orthogonalLoop=1;jettySize=auto;html=1;" edge="1" parent="1" source="C39TWcMq3VKKaSgKjo65-23" target="C39TWcMq3VKKaSgKjo65-26">
          <mxGeometry relative="1" as="geometry" />
        </mxCell>
        <mxCell id="C39TWcMq3VKKaSgKjo65-23" value="Digite a&lt;br&gt;sua idade:" style="shape=step;perimeter=stepPerimeter;whiteSpace=wrap;html=1;fixedSize=1;" vertex="1" parent="1">
          <mxGeometry x="140" y="570" width="120" height="80" as="geometry" />
        </mxCell>
        <mxCell id="C39TWcMq3VKKaSgKjo65-25" value="Sim" style="text;html=1;strokeColor=none;fillColor=none;align=center;verticalAlign=middle;whiteSpace=wrap;rounded=0;rotation=-90;" vertex="1" parent="1">
          <mxGeometry x="160" y="530" width="60" height="30" as="geometry" />
        </mxCell>
        <mxCell id="C39TWcMq3VKKaSgKjo65-29" value="" style="edgeStyle=orthogonalEdgeStyle;rounded=0;orthogonalLoop=1;jettySize=auto;html=1;" edge="1" parent="1" source="C39TWcMq3VKKaSgKjo65-26" target="C39TWcMq3VKKaSgKjo65-28">
          <mxGeometry relative="1" as="geometry" />
        </mxCell>
        <mxCell id="C39TWcMq3VKKaSgKjo65-26" value="idade_part" style="shape=parallelogram;perimeter=parallelogramPerimeter;whiteSpace=wrap;html=1;fixedSize=1;" vertex="1" parent="1">
          <mxGeometry x="140" y="690" width="120" height="60" as="geometry" />
        </mxCell>
        <mxCell id="C39TWcMq3VKKaSgKjo65-38" value="" style="edgeStyle=orthogonalEdgeStyle;rounded=0;orthogonalLoop=1;jettySize=auto;html=1;" edge="1" parent="1" source="C39TWcMq3VKKaSgKjo65-28" target="C39TWcMq3VKKaSgKjo65-30">
          <mxGeometry relative="1" as="geometry" />
        </mxCell>
        <mxCell id="C39TWcMq3VKKaSgKjo65-40" value="" style="edgeStyle=orthogonalEdgeStyle;rounded=0;orthogonalLoop=1;jettySize=auto;html=1;" edge="1" parent="1" source="C39TWcMq3VKKaSgKjo65-28" target="C39TWcMq3VKKaSgKjo65-39">
          <mxGeometry relative="1" as="geometry" />
        </mxCell>
        <mxCell id="C39TWcMq3VKKaSgKjo65-28" value="idade_part &amp;gt; 18?" style="rounded=0;whiteSpace=wrap;html=1;" vertex="1" parent="1">
          <mxGeometry x="140" y="790" width="120" height="60" as="geometry" />
        </mxCell>
        <mxCell id="C39TWcMq3VKKaSgKjo65-42" style="edgeStyle=orthogonalEdgeStyle;rounded=0;orthogonalLoop=1;jettySize=auto;html=1;" edge="1" parent="1" source="C39TWcMq3VKKaSgKjo65-30" target="C39TWcMq3VKKaSgKjo65-41">
          <mxGeometry relative="1" as="geometry">
            <Array as="points">
              <mxPoint x="630" y="820" />
            </Array>
          </mxGeometry>
        </mxCell>
        <mxCell id="C39TWcMq3VKKaSgKjo65-30" value="Cadastro de&lt;br&gt;evento não&lt;br&gt;permitido para&lt;br&gt;menores!" style="shape=step;perimeter=stepPerimeter;whiteSpace=wrap;html=1;fixedSize=1;" vertex="1" parent="1">
          <mxGeometry x="320" y="780" width="120" height="80" as="geometry" />
        </mxCell>
        <mxCell id="C39TWcMq3VKKaSgKjo65-32" value="Não" style="text;html=1;strokeColor=none;fillColor=none;align=center;verticalAlign=middle;whiteSpace=wrap;rounded=0;" vertex="1" parent="1">
          <mxGeometry x="260" y="790" width="60" height="30" as="geometry" />
        </mxCell>
        <mxCell id="C39TWcMq3VKKaSgKjo65-46" style="edgeStyle=orthogonalEdgeStyle;rounded=0;orthogonalLoop=1;jettySize=auto;html=1;entryX=0.5;entryY=1;entryDx=0;entryDy=0;" edge="1" parent="1" source="C39TWcMq3VKKaSgKjo65-39" target="C39TWcMq3VKKaSgKjo65-41">
          <mxGeometry relative="1" as="geometry" />
        </mxCell>
        <mxCell id="C39TWcMq3VKKaSgKjo65-39" value="Evento&lt;br&gt;cadastrado!" style="shape=step;perimeter=stepPerimeter;whiteSpace=wrap;html=1;fixedSize=1;" vertex="1" parent="1">
          <mxGeometry x="140" y="890" width="120" height="80" as="geometry" />
        </mxCell>
        <mxCell id="C39TWcMq3VKKaSgKjo65-41" value="Fim" style="ellipse;whiteSpace=wrap;html=1;" vertex="1" parent="1">
          <mxGeometry x="600" y="610" width="120" height="80" as="geometry" />
        </mxCell>
      </root>
    </mxGraphModel>
  </diagram>
</mxfile>
